<?xml version="1.0" standalone="no"?>
<!DOCTYPE svg PUBLIC "-//W3C//DTD SVG 20010904//EN"
 "http://www.w3.org/TR/2001/REC-SVG-20010904/DTD/svg10.dtd">
<svg version="1.0" xmlns="http://www.w3.org/2000/svg"
 width="189.000000pt" height="267.000000pt" viewBox="0 0 189.000000 267.000000"
 preserveAspectRatio="xMidYMid meet">

<g transform="translate(0.000000,267.000000) scale(0.100000,-0.100000)"
fill="#000000" stroke="none">
<path d="M910 2659 c-217 -27 -400 -105 -521 -221 -43 -40 -129 -160 -129
-179 0 -4 -5 -20 -12 -36 -11 -25 -13 -19 -22 72 -11 97 -12 100 -37 103 -15
2 -29 -3 -31 -10 -3 -7 2 -107 12 -221 l17 -208 -24 -46 c-60 -120 -1 -290
110 -318 35 -9 36 -15 39 -215 4 -183 9 -203 72 -258 32 -28 89 -52 124 -52 7
0 61 16 119 35 59 19 108 33 108 32 1 -1 7 -36 13 -77 7 -41 21 -102 31 -135
24 -75 18 -109 -39 -261 -68 -179 -181 -445 -210 -496 -14 -24 -15 -23 32 -44
54 -24 132 -24 185 -1 l40 19 32 151 c17 84 38 197 47 252 8 55 17 110 20 123
7 35 32 26 43 -15 100 -372 141 -530 147 -558 5 -29 13 -36 67 -61 43 -19 79
-27 120 -28 53 -1 61 2 83 27 13 16 24 34 24 41 0 8 -56 126 -124 262 -140
282 -220 458 -237 524 -9 38 -8 61 9 141 22 108 53 186 77 195 9 4 25 -3 39
-19 13 -14 43 -36 67 -49 38 -20 58 -23 154 -23 105 0 114 2 177 33 109 53
167 140 199 296 22 103 26 264 8 328 -24 91 -84 168 -130 168 -65 0 -74 46
-34 166 27 79 32 154 14 201 -13 36 -54 78 -88 93 -22 9 -30 24 -49 93 -13 45
-26 85 -30 89 -14 14 -131 -23 -225 -70 -4 -2 4 26 18 63 14 37 25 72 25 77 0
14 -97 0 -148 -23 -24 -10 -57 -28 -73 -40 l-31 -22 7 57 c6 44 4 56 -6 55 -8
-1 -43 -5 -79 -10z m76 -31 c-21 -100 -16 -117 20 -77 28 31 109 69 165 78 59
10 60 6 19 -94 -15 -38 -27 -71 -25 -73 2 -2 22 11 46 27 47 33 144 71 182 71
23 0 30 -15 63 -131 4 -13 -6 -17 -52 -22 -112 -12 -138 -62 -109 -213 11 -57
16 -111 12 -142 -7 -57 -44 -137 -77 -167 -13 -11 -31 -32 -40 -48 l-17 -28
-7 90 c-16 220 -77 316 -197 315 -78 -1 -132 -30 -202 -109 -85 -96 -138 -117
-330 -134 -141 -12 -174 -43 -177 -166 -2 -47 -2 -48 -12 -20 -5 17 -11 102
-11 190 -2 140 1 169 20 230 44 138 153 261 302 339 101 53 282 102 389 105
39 1 42 -1 38 -21z m-778 -291 c2 -26 -1 -47 -5 -47 -20 1 -31 18 -33 50 -3
50 -2 52 18 48 13 -2 18 -15 20 -51z m1279 42 c58 -22 103 -87 103 -150 0 -15
-11 -63 -25 -106 -14 -43 -25 -101 -25 -128 l0 -51 -64 4 c-58 4 -134 -6 -178
-23 -16 -6 -16 -5 -2 24 31 63 39 143 21 226 -36 162 -13 212 100 214 23 1 54
-4 70 -10z m-1267 -189 c3 -71 -12 -223 -20 -208 -11 19 -23 255 -15 269 14
21 34 -14 35 -61z m774 -173 c28 -21 36 -160 11 -187 -22 -25 -57 -26 -77 -2
-9 9 -19 47 -23 85 -6 63 -5 71 16 93 25 27 47 30 73 11z m-176 -40 c6 -7 14
-47 18 -89 6 -69 5 -77 -15 -97 -24 -24 -49 -27 -74 -8 -26 19 -35 148 -13
182 18 28 66 35 84 12z m-587 -177 c6 -41 19 -99 30 -128 23 -63 23 -62 4 -62
-25 0 -90 73 -103 116 -25 83 -11 163 37 218 15 17 16 16 18 -25 2 -24 8 -78
14 -119z m408 131 c5 -9 11 -46 15 -83 6 -60 4 -69 -17 -94 -19 -21 -29 -26
-49 -21 -33 9 -48 50 -48 128 0 50 3 60 25 77 28 22 61 19 74 -7z m931 -11
c56 -9 69 -15 97 -46 52 -59 81 -177 68 -279 -3 -30 -10 -53 -14 -50 -5 2 -11
-13 -15 -35 -3 -22 -11 -40 -16 -40 -6 0 -10 -4 -10 -10 0 -5 -13 -39 -30 -75
-16 -36 -30 -72 -30 -81 0 -8 -4 -12 -10 -9 -5 3 -10 2 -10 -4 0 -18 -85 -97
-120 -111 -19 -8 -38 -18 -42 -24 -12 -17 -149 -12 -185 7 -18 9 -41 18 -52
20 -11 2 -29 11 -41 22 -19 17 -28 10 -12 -11 4 -5 -1 -1 -10 9 -18 19 -22 40
-18 87 2 24 26 80 35 80 2 0 21 -11 41 -25 47 -32 95 -45 170 -45 40 0 67 5
80 16 19 15 19 16 -1 9 -80 -28 -187 -9 -258 47 -47 38 -58 65 -59 144 0 78
49 183 65 140 3 -8 26 -26 51 -41 70 -41 193 -47 242 -10 16 11 8 11 -44 -2
-90 -23 -160 -6 -219 53 -39 38 -43 46 -43 91 0 60 29 109 80 136 29 15 51 18
130 14 52 -3 117 -13 143 -22 26 -10 51 -15 54 -11 9 9 -45 27 -125 41 -40 7
-76 16 -79 19 -10 10 116 7 187 -4z m-1121 -21 c24 -26 33 -131 14 -170 -14
-30 -48 -43 -74 -28 -21 11 -25 25 -33 112 -6 52 -4 60 18 82 31 31 49 31 75
4z m703 -243 c-43 -46 -57 -170 -29 -239 13 -29 13 -37 -1 -63 l-16 -29 -7 25
c-10 37 -10 170 0 226 5 28 20 77 32 109 l23 60 8 -34 c8 -27 6 -37 -10 -55z
m-202 -25 c0 -81 -105 -161 -213 -161 -31 0 -38 3 -35 17 2 11 20 20 58 27 90
18 150 67 150 121 0 8 9 15 20 15 13 0 20 -7 20 -19z m-585 -163 c41 -55 63
-98 91 -174 l23 -64 -29 -15 c-37 -19 -84 -19 -103 -1 -8 8 -18 44 -21 80 -8
69 -5 216 4 216 3 -1 19 -19 35 -42z m702 -100 c-19 -12 -145 -38 -237 -50
-113 -14 -193 -5 -284 30 -42 17 -76 28 -76 25 0 -2 30 -18 67 -35 60 -28 80
-32 179 -36 78 -3 111 -8 108 -16 -3 -7 -32 -11 -77 -11 -59 0 -87 -6 -155
-34 -69 -28 -85 -32 -93 -20 -15 25 -59 161 -54 170 3 4 27 -2 53 -13 66 -29
211 -36 316 -14 89 18 153 50 211 104 l40 37 7 -65 c5 -46 3 -67 -5 -72z m23
-70 c6 -29 13 -60 14 -69 2 -10 -6 -21 -19 -27 -28 -13 -57 -86 -79 -198 -14
-69 -21 -83 -53 -112 -41 -36 -87 -53 -118 -42 -23 8 -60 115 -78 228 -6 39
-16 72 -22 72 -6 0 -51 -13 -100 -30 -93 -31 -161 -38 -198 -19 -27 14 -87 70
-87 81 0 4 18 8 39 8 22 0 52 5 67 10 20 8 29 8 35 -1 5 -9 32 -2 96 24 117
46 149 52 202 34 l43 -15 9 28 c9 23 17 28 57 34 29 4 48 2 50 -4 6 -16 18
-12 69 20 26 17 50 30 54 30 4 0 12 -24 19 -52z m-122 -488 c-13 -11 -40 -25
-61 -32 -31 -9 -43 -9 -71 5 -28 13 -33 20 -29 41 3 15 10 23 16 19 23 -14 80
-2 120 26 l42 29 3 -34 c2 -26 -2 -39 -20 -54z m56 -38 c18 -45 112 -246 143
-305 14 -27 13 -27 -12 -21 -19 5 -32 1 -50 -16 -22 -21 -28 -33 -56 -105 -10
-28 -15 -16 -63 168 -29 109 -58 203 -65 210 -8 8 -16 9 -28 1 -13 -8 -23 -49
-40 -160 -13 -82 -25 -153 -26 -159 -2 -5 -11 13 -21 41 -20 61 -56 99 -86 91
-11 -3 -20 -2 -20 1 0 4 22 63 49 132 33 84 54 124 63 121 70 -19 134 -7 167
33 20 24 24 20 45 -32z m-267 -294 c13 -12 23 -26 23 -32 0 -6 -5 -4 -10 4 -5
8 -10 10 -10 4 0 -6 3 -14 8 -18 7 -8 8 -13 11 -41 0 -8 8 -15 16 -15 13 0 15
-7 9 -37 -7 -40 -23 -78 -24 -55 0 6 -5 12 -11 12 -6 0 -9 -8 -6 -19 2 -10 1
-25 -4 -33 -4 -7 -4 -20 1 -28 8 -12 10 -10 10 8 0 12 5 22 11 22 7 0 8 -7 4
-17 -5 -10 -8 -26 -9 -36 0 -14 -6 -16 -29 -11 -21 4 -27 3 -22 -5 5 -8 -1
-10 -19 -5 -16 4 -26 2 -26 -5 0 -6 11 -11 24 -11 24 0 45 -26 23 -28 -7 0
-30 -4 -51 -8 -29 -5 -37 -4 -32 4 4 7 24 13 44 13 32 2 33 3 8 6 -36 6 -79
-5 -71 -17 9 -15 -10 -12 -49 6 l-34 17 35 76 c19 42 50 114 70 161 19 47 39
91 45 98 15 18 39 15 65 -10z m509 -220 c90 -178 95 -201 53 -226 -18 -12 -23
-12 -30 0 -7 10 -9 10 -9 1 0 -7 -11 -13 -25 -13 -14 0 -25 5 -25 10 0 6 -10
20 -22 32 -16 16 -20 17 -15 5 8 -20 -15 -22 -63 -6 -28 10 -30 13 -15 22 14
7 21 6 30 -7 17 -22 28 -20 22 4 -3 10 0 21 7 24 6 2 -5 2 -24 -1 -31 -6 -33
-4 -22 9 11 14 11 83 -1 95 -6 5 -20 -65 -20 -95 0 -12 -2 -20 -5 -17 -11 10
-13 57 -4 68 5 7 12 32 16 57 4 31 3 40 -4 30 -5 -8 -10 -27 -10 -42 0 -20 -4
-26 -15 -22 -10 4 -13 13 -9 26 4 15 3 18 -6 13 -10 -6 -11 -1 -4 21 4 16 9
49 10 74 2 25 3 49 3 53 1 5 5 5 11 2 5 -3 7 0 4 8 -7 20 41 56 66 50 14 -4
46 -57 106 -175z m-499 -94 c-3 -3 -12 -4 -19 -1 -8 3 -5 6 6 6 11 1 17 -2 13
-5z"/>
<path d="M863 1143 c-3 -10 -8 -21 -10 -25 -2 -5 10 -8 26 -8 22 0 31 5 31 16
0 11 -6 15 -19 11 -14 -3 -18 -1 -14 9 3 8 2 14 -1 14 -4 0 -9 -8 -13 -17z"/>
<path d="M781 1113 c21 -40 24 -42 41 -27 9 9 15 21 12 26 -4 6 -10 5 -16 -3
-7 -10 -8 -8 -5 9 4 15 0 22 -10 22 -8 0 -11 -4 -8 -10 10 -17 -7 -11 -22 8
-8 9 -4 -2 8 -25z"/>
<path d="M975 1139 c6 -9 -20 -31 -28 -23 -13 13 -27 -7 -14 -20 14 -17 20
-14 46 23 15 21 17 28 6 28 -8 0 -12 -4 -10 -8z"/>
<path d="M945 1130 c3 -5 8 -10 11 -10 2 0 4 5 4 10 0 6 -5 10 -11 10 -5 0 -7
-4 -4 -10z"/>
<path d="M731 224 c0 -11 3 -14 6 -6 3 7 2 16 -1 19 -3 4 -6 -2 -5 -13z"/>
</g>
</svg>
